<?xml version="1.0" encoding="UTF-8" standalone="no"?>
<!-- Created with Inkscape (http://www.inkscape.org/) -->

<svg
   width="48"
   height="48"
   viewBox="0 0 48 48"
   version="1.1"
   id="svg1"
   xml:space="preserve"
   inkscape:version="1.4 (86a8ad7, 2024-10-11)"
   sodipodi:docname="logo.svg"
   xmlns:inkscape="http://www.inkscape.org/namespaces/inkscape"
   xmlns:sodipodi="http://sodipodi.sourceforge.net/DTD/sodipodi-0.dtd"
   xmlns:xlink="http://www.w3.org/1999/xlink"
   xmlns="http://www.w3.org/2000/svg"
   xmlns:svg="http://www.w3.org/2000/svg"><sodipodi:namedview
     id="namedview1"
     pagecolor="#ffffff"
     bordercolor="#111111"
     borderopacity="1"
     inkscape:showpageshadow="0"
     inkscape:pageopacity="0"
     inkscape:pagecheckerboard="1"
     inkscape:deskcolor="#d1d1d1"
     inkscape:document-units="px"
     inkscape:zoom="7.9999995"
     inkscape:cx="5.4375003"
     inkscape:cy="29.500002"
     inkscape:window-width="1920"
     inkscape:window-height="1008"
     inkscape:window-x="-8"
     inkscape:window-y="-8"
     inkscape:window-maximized="1"
     inkscape:current-layer="layer1" /><defs
     id="defs1"><linearGradient
       id="linearGradient3"
       inkscape:collect="always"><stop
         style="stop-color:#70243a;stop-opacity:1;"
         offset="0"
         id="stop3" /><stop
         style="stop-color:#f94e4d;stop-opacity:1;"
         offset="1"
         id="stop4" /></linearGradient><linearGradient
       inkscape:collect="always"
       xlink:href="#linearGradient3"
       id="linearGradient4"
       x1="0.6119929"
       y1="154.19893"
       x2="202.077"
       y2="154.19893"
       gradientUnits="userSpaceOnUse" /></defs><g
     inkscape:label="Слой 1"
     inkscape:groupmode="layer"
     id="layer1"><g
       id="layer1-8"
       transform="matrix(0.21839202,0,0,0.18977937,1.8663456,-4.5684394)"
       style="fill:url(#linearGradient4);stroke:#000000;stroke-opacity:1;fill-opacity:1"><path
         d="M 28.5539,135.08 2.74191,154.688 c -1.04518,0.669 -0.63066,1.286 0.03153,1.894 l 62.22776,40.986 c 3.2395,0.495 5.3256,-0.558 8.1078,-2.591 l 92.548,-72.627 c 1.753,-1.212 2.84,-1.093 3.998,-1.116 l 15.215,9.907 c 2.102,1.21 2.388,1.01 3.379,-0.02 l 3.873,-3.726 c 0.169,-0.629 0.672,-1.174 -1.048,-2.274 L 143.925,93.8557 c -3.485,-2.1773 -5.967,-1.466 -8.419,-0.4573 L 38.9902,170.009 c -1.3065,0.706 -1.7133,-0.027 -2.4647,-0.21 L 24.4877,161.23 c -0.5223,-0.686 -0.5104,-1.373 0.6896,-2.059 l 12.4224,-10.312 c 1.1906,-0.435 1.4697,-0.111 1.9641,0.034 l 8.3932,5.069 c 0.5386,0.217 0.9764,0.132 1.3928,-0.018 l 5.2591,-4.187 c 0.3396,-0.465 0.356,-0.93 -0.3947,-1.394 L 32.0781,135.016 c -1.3992,-0.409 -2.1708,-0.315 -3.5242,0.064 z"
         id="path1"
         stroke="#6e1e3c"
         stroke-width="3"
         fill="#ad4040"
         style="fill:url(#linearGradient4);stroke:#000000;stroke-opacity:1;fill-opacity:1" /><path
         d="m 94.531,184.61 6.808,-5.237 12.046,7.856 c 1.787,0.875 2.227,0.156 3.142,0 l 44.516,-35.744 c 0.843,-0.496 1.708,-0.961 3.404,-0.262 l 35.713,23.848 c 0.556,0.648 0.556,1.296 0,1.944 l -48.327,37.773 c -3.636,1.384 -7.413,1.423 -11.295,0.463 z"
         id="path2"
         stroke="#6e1e3c"
         stroke-width="3"
         fill="#ad4040"
         style="fill:url(#linearGradient4);stroke:#000000;stroke-opacity:1;fill-opacity:1" /></g></g></svg>
