<?xml version="1.0" encoding="UTF-8" standalone="no"?>
<!-- Created with Inkscape (http://www.inkscape.org/) -->

<svg
   width="48"
   height="48"
   viewBox="0 0 48 48"
   version="1.1"
   id="svg1"
   xml:space="preserve"
   inkscape:version="1.4 (86a8ad7, 2024-10-11)"
   sodipodi:docname="sucess.svg"
   xmlns:inkscape="http://www.inkscape.org/namespaces/inkscape"
   xmlns:sodipodi="http://sodipodi.sourceforge.net/DTD/sodipodi-0.dtd"
   xmlns="http://www.w3.org/2000/svg"
   xmlns:svg="http://www.w3.org/2000/svg"><sodipodi:namedview
     id="namedview1"
     pagecolor="#ffffff"
     bordercolor="#111111"
     borderopacity="1"
     inkscape:showpageshadow="0"
     inkscape:pageopacity="0"
     inkscape:pagecheckerboard="1"
     inkscape:deskcolor="#d1d1d1"
     inkscape:document-units="px"
     inkscape:zoom="15.999999"
     inkscape:cx="21.718751"
     inkscape:cy="20.687501"
     inkscape:window-width="1920"
     inkscape:window-height="1008"
     inkscape:window-x="-8"
     inkscape:window-y="-8"
     inkscape:window-maximized="1"
     inkscape:current-layer="layer1" /><defs
     id="defs1" /><g
     inkscape:label="Слой 1"
     inkscape:groupmode="layer"
     id="layer1"><path
       d="M 40.265625,16.318359 C 37.185661,18.008672 24.125,24.5625 24.125,24.5625 L 14.029297,9.0527344 A 17.98851,17.988512 0 0 0 6.0117187,24 17.98851,17.988512 0 0 0 24,41.988281 17.98851,17.988512 0 0 0 41.988281,24 17.98851,17.988512 0 0 0 40.265625,16.318359 Z"
       style="display:inline;fill:none;stroke:#000000;stroke-width:2.02298;stroke-linejoin:bevel;stroke-miterlimit:40"
       id="path3" /><path
       d="M 24,6.0117187 A 17.98851,17.988512 0 0 0 14.029297,9.0527344 L 24.125,24.5625 c 0,0 13.060661,-6.553828 16.140625,-8.244141 A 17.98851,17.988512 0 0 0 24,6.0117187 Z"
       style="display:inline;fill:none;stroke:#000000;stroke-width:2;stroke-linejoin:round;stroke-miterlimit:40"
       id="path4" /></g></svg>
